<svg
    xmlns="http://www.w3.org/2000/svg"
    viewBox="0 0 512 512"
    id="vector">
    <path
        id="path"
        d="M 394.063 391.996 C 384.865 386.706 375.69 381.373 366.505 376.059 C 371.507 364.29 376.699 352.157 381.408 340.006 C 383.217 335.339 382.597 330.095 379.753 325.978 C 373.977 317.617 362.89 317.123 355.409 324.238 C 335.748 342.938 316.324 361.238 296.757 379.775 C 292.982 383.352 291.118 388.209 291.647 393.102 C 292.17 397.948 294.986 402.246 299.372 404.894 C 308.717 410.535 318.133 415.849 327.47 421.185 C 322.826 432.136 317.098 445.431 312.55 457.187 C 309.663 464.649 312.971 472.931 320.243 476.451 C 325.957 479.217 332.523 478.662 338.542 472.968 C 357.886 454.668 377.885 435.754 397.212 417.421 C 401.03 413.799 402.886 408.909 402.302 404.005 C 401.711 399.043 398.708 394.667 394.063 391.996 Z M 386.889 406.536 C 371.255 421.368 327.94 463.509 326.78 462.948 C 326.662 462.891 326.474 462.77 326.54 462.599 C 331.719 449.073 338.175 434.327 343.458 421.867 C 344.951 418.345 344.365 413.587 339.69 410.897 C 328.85 404.66 317.899 398.543 307.126 392.052 C 306.324 391.569 306.359 391.342 307.075 390.664 C 327.949 370.885 365.034 335.353 366.878 334.205 C 367.274 334.289 367.422 334.504 367.423 334.589 C 362.116 348.273 356.21 361.894 350.523 375.328 C 348.729 379.565 350.23 383.977 354.262 386.308 C 358.661 388.848 363.058 391.395 367.453 393.942 C 373.827 397.635 380.201 401.329 386.587 405.001 C 387.693 405.636 387.723 405.745 386.889 406.536 Z M 305.105 198.136 L 103.645 198.136 C 93.372 198.136 85.014 206.466 85.014 216.705 L 85.014 260.981 C 85.014 271.22 93.371 279.55 103.645 279.55 L 305.106 279.55 C 315.379 279.55 323.737 271.22 323.737 260.981 L 323.737 216.705 C 323.736 206.466 315.379 198.136 305.105 198.136 Z M 308.736 260.981 C 308.736 262.949 307.107 264.55 305.105 264.55 L 103.645 264.55 C 101.643 264.55 100.014 262.949 100.014 260.981 L 100.014 216.705 C 100.014 214.737 101.643 213.136 103.645 213.136 L 305.106 213.136 C 307.108 213.136 308.737 214.737 308.737 216.705 L 308.737 260.981 Z M 323.736 117.083 C 323.736 106.844 315.379 98.514 305.105 98.514 L 103.645 98.514 C 93.372 98.514 85.014 106.844 85.014 117.083 L 85.014 161.359 C 85.014 171.598 93.371 179.928 103.645 179.928 L 305.106 179.928 C 315.379 179.928 323.737 171.598 323.737 161.359 L 323.737 117.083 Z M 308.736 161.36 C 308.736 163.328 307.107 164.929 305.105 164.929 L 103.645 164.929 C 101.643 164.929 100.014 163.328 100.014 161.36 L 100.014 117.084 C 100.014 115.116 101.643 113.515 103.645 113.515 L 305.106 113.515 C 307.108 113.515 308.737 115.116 308.737 117.084 L 308.737 161.36 Z M 346.983 285.217 C 328.33 285.217 310.717 289.746 295.18 297.759 L 103.645 297.759 C 93.373 297.759 85.015 306.09 85.015 316.329 L 85.015 360.599 C 85.015 370.838 93.372 379.169 103.645 379.169 L 235.266 379.169 C 234.17 385.487 233.593 391.981 233.593 398.607 C 233.593 422.85 241.244 445.336 254.253 463.789 L 103.645 463.789 C 101.643 463.789 100.015 462.187 100.015 460.219 L 100.015 415.949 C 100.015 413.98 101.643 412.379 103.645 412.379 L 211.286 412.379 C 215.429 412.379 218.786 409.021 218.786 404.879 C 218.786 400.737 215.429 397.379 211.286 397.379 L 103.645 397.379 C 93.373 397.379 85.015 405.71 85.015 415.949 L 85.015 460.219 C 85.015 470.458 93.372 478.789 103.645 478.789 L 266.882 478.789 C 273.952 485.852 281.947 491.988 290.667 496.999 L 92.425 496.999 C 78.198 496.999 66.625 485.425 66.625 471.199 L 66.625 106.11 C 66.625 91.884 78.198 80.31 92.425 80.31 L 316.325 80.31 C 330.552 80.31 342.125 91.884 342.125 106.11 L 342.125 262.75 C 342.125 266.892 345.482 270.25 349.625 270.25 C 353.768 270.25 357.125 266.892 357.125 262.75 L 357.125 106.11 C 357.125 83.613 338.822 65.31 316.325 65.31 L 276.258 65.31 L 276.258 29.699 C 276.258 13.323 262.935 0 246.559 0 L 162.192 0 C 145.816 0 132.493 13.323 132.493 29.699 L 132.493 65.31 L 92.425 65.31 C 69.928 65.31 51.625 83.613 51.625 106.11 L 51.625 471.2 C 51.625 493.697 69.928 512 92.425 512 L 316.325 512 C 320.217 512 324.056 511.447 327.767 510.364 C 334.015 511.435 340.434 512 346.983 512 C 409.507 512 460.375 461.133 460.375 398.608 C 460.375 336.084 409.508 285.217 346.983 285.217 Z M 147.492 29.699 C 147.492 21.594 154.086 15 162.191 15 L 246.558 15 C 254.663 15 261.257 21.594 261.257 29.699 L 261.257 65.31 L 147.492 65.31 Z M 103.645 364.17 C 101.643 364.17 100.015 362.568 100.015 360.6 L 100.015 316.33 C 100.015 314.361 101.643 312.76 103.645 312.76 L 272.986 312.76 C 257.32 326.281 245.386 344.01 238.945 364.17 Z M 346.983 497 C 292.73 497 248.591 452.862 248.591 398.608 C 248.591 344.355 292.73 300.217 346.983 300.217 C 401.236 300.217 445.375 344.355 445.375 398.608 C 445.375 452.862 401.236 497 346.983 497 Z"
        fill="#000000"/>
</svg>
