<svg
    xmlns="http://www.w3.org/2000/svg"
    viewBox="0 0 30 242"
    id="vector">
    <path
        id="path"
        d="M 16.395 72.634 L 30.394 56.4 C 30.741 55.949 30.807 55.456 30.594 54.92 C 30.38 54.385 29.994 54.116 29.434 54.116 L 20.474 54.116 L 20.474 1.353 C 20.474 0.958 20.354 0.634 20.114 0.381 C 19.874 0.128 19.567 0.001 19.194 0.001 L 11.515 0.001 C 11.142 0.001 10.835 0.128 10.596 0.381 C 10.356 0.635 10.236 0.959 10.236 1.353 L 10.236 54.117 L 1.277 54.117 C 0.743 54.117 0.357 54.386 0.117 54.921 C -0.097 55.457 -0.016 55.95 0.356 56.401 L 14.516 72.635 C 14.782 72.917 15.102 73.057 15.476 73.057 C 15.822 73.057 16.128 72.916 16.395 72.634 Z"
        fill="#dc3545"
        fill-opacity="0.4"
        stroke-opacity="0.4"/>
    <path
        id="path_1"
        d="M 16.395 157.301 L 30.395 140.788 C 30.742 140.329 30.808 139.828 30.595 139.283 C 30.381 138.739 29.995 138.466 29.435 138.466 L 20.474 138.466 L 20.474 84.798 C 20.474 84.396 20.354 84.067 20.114 83.809 C 19.874 83.551 19.567 83.422 19.194 83.422 L 11.515 83.422 C 11.142 83.422 10.835 83.551 10.596 83.809 C 10.356 84.067 10.236 84.397 10.236 84.798 L 10.236 138.466 L 1.276 138.466 C 0.742 138.466 0.356 138.74 0.116 139.284 C -0.098 139.829 -0.017 140.331 0.355 140.79 L 14.516 157.302 C 14.782 157.589 15.102 157.732 15.476 157.732 C 15.822 157.732 16.128 157.588 16.395 157.302 Z"
        fill="#dc3545"
        fill-opacity="0.4"
        stroke-opacity="0.4"
        stroke-width="0.145263"/>
    <path
        id="path_2"
        d="M 16.395 241.968 L 30.395 225.455 C 30.742 224.996 30.808 224.495 30.595 223.95 C 30.381 223.406 29.995 223.133 29.435 223.133 L 20.475 223.133 L 20.475 169.465 C 20.475 169.063 20.355 168.734 20.115 168.476 C 19.875 168.218 19.568 168.089 19.195 168.089 L 11.516 168.089 C 11.143 168.089 10.836 168.218 10.597 168.476 C 10.357 168.734 10.237 169.064 10.237 169.465 L 10.237 223.133 L 1.276 223.133 C 0.742 223.133 0.356 223.407 0.116 223.951 C -0.098 224.496 -0.017 224.998 0.355 225.457 L 14.516 241.969 C 14.782 242.256 15.102 242.399 15.476 242.399 C 15.822 242.399 16.128 242.255 16.395 241.969 Z"
        fill="#dc3545"
        stroke-width="0.145263"/>
</svg>
