<svg
    xmlns="http://www.w3.org/2000/svg"
    viewBox="0 0 28 28"
    id="vector">
    <path
        id="path"
        d="M 23.778 28.627 L 4.851 28.627 C 3.711 28.627 2.785 27.701 2.785 26.563 L 2.785 10.766 C 2.785 9.626 3.712 8.7 4.851 8.7 L 23.779 8.7 C 24.918 8.7 25.843 9.627 25.843 10.766 L 25.843 26.563 C 25.843 27.701 24.917 28.627 23.778 28.627 Z M 4.851 9.699 C 4.263 9.699 3.785 10.178 3.785 10.765 L 3.785 26.562 C 3.785 27.149 4.264 27.626 4.851 27.626 L 23.779 27.626 C 24.366 27.626 24.843 27.148 24.843 26.562 L 24.843 10.766 C 24.843 10.178 24.365 9.7 23.779 9.7 L 4.851 9.7 Z"
        fill="#000000"/>
    <path
        id="path_1"
        d="M 21.644 9.699 C 21.368 9.699 21.144 9.475 21.144 9.199 L 21.144 7.83 C 21.144 4.064 18.081 1 14.314 1 C 10.547 1 7.484 4.064 7.484 7.83 L 7.484 9.199 C 7.484 9.475 7.26 9.699 6.984 9.699 C 6.708 9.699 6.484 9.475 6.484 9.199 L 6.484 7.83 C 6.484 3.513 9.997 0 14.314 0 C 18.631 0 22.144 3.513 22.144 7.83 L 22.144 9.199 C 22.144 9.476 21.92 9.699 21.644 9.699 Z"
        fill="#000000"/>
    <path
        id="path_2"
        d="M 14.312 23.762 C 13.462 23.762 12.771 23.071 12.771 22.221 L 12.771 19.651 C 11.731 19.088 11.076 18.005 11.076 16.803 C 11.076 15.017 12.529 13.565 14.314 13.565 C 16.102 13.565 17.556 15.018 17.556 16.803 C 17.556 18.004 16.9 19.088 15.859 19.65 L 15.859 22.221 C 15.858 23.07 15.164 23.762 14.312 23.762 Z M 14.313 14.564 C 13.079 14.564 12.075 15.568 12.075 16.802 C 12.075 17.712 12.619 18.525 13.461 18.872 C 13.649 18.95 13.771 19.132 13.771 19.334 L 13.771 22.22 C 13.771 22.518 14.014 22.761 14.312 22.761 C 14.614 22.761 14.859 22.518 14.859 22.22 L 14.859 19.334 C 14.859 19.131 14.981 18.949 15.169 18.872 C 16.012 18.524 16.557 17.712 16.557 16.803 C 16.556 15.568 15.55 14.564 14.313 14.564 Z"
        fill="#000000"/>
</svg>
