<svg
    xmlns="http://www.w3.org/2000/svg"
    viewBox="0 0 6400 6400"
    id="vector">
    <path
        id="path"
        d="M 1910 6396 C 1910 6394 1928 6381 1950 6366 C 1998 6334 2176 6156 2238 6078 C 2265 6043 2287 6023 2294 6028 C 2322 6046 2750 6370 2775 6391 C 2780 6396 2590 6400 2347 6400 C 2107 6400 1910 6398 1910 6396 Z"
        fill="#2bb673"
        stroke="#00000000"/>
    <path
        id="path_1"
        d="M 4790 6361 C 4732 6340 4678 6320 4670 6317 C 4662 6313 4592 6290 4515 6265 C 4438 6240 4368 6216 4359 6211 C 4350 6206 4323 6196 4299 6190 C 4275 6183 4242 6172 4225 6165 C 4209 6157 4166 6142 4130 6131 C 4094 6119 4034 6099 3995 6086 C 3775 6008 3475 5904 3410 5883 C 3369 5870 3328 5855 3319 5850 C 3310 5845 3283 5836 3259 5830 C 3235 5823 3202 5812 3185 5805 C 3169 5798 3092 5771 3015 5745 C 2938 5720 2866 5695 2855 5690 C 2844 5685 2779 5663 2710 5640 C 2538 5582 2509 5569 2514 5551 C 2543 5450 2564 5357 2574 5289 L 2585 5205 L 2645 5207 C 2723 5208 3226 5256 3310 5269 C 3346 5275 3436 5284 3510 5290 C 3584 5296 3674 5305 3710 5311 C 3746 5317 3867 5330 3980 5340 C 4182 5359 4608 5401 4990 5439 C 5097 5450 5199 5461 5215 5465 C 5232 5468 5369 5482 5520 5496 C 5671 5510 5903 5533 6035 5546 C 6167 5560 6304 5573 6339 5577 L 6403 5583 L 6397 5664 C 6373 5993 6114 6289 5775 6375 C 5679 6400 5670 6400 5286 6399 L 4895 6398 L 4790 6361 Z"
        fill="#2bb673"
        stroke="#00000000"/>
    <path
        id="path_2"
        d="M 2589 4878 C 2589 4876 2580 4826 2570 4765 C 2560 4705 2545 4629 2536 4597 C 2527 4565 2522 4535 2525 4530 C 2528 4526 2545 4518 2562 4514 C 2580 4511 2601 4504 2610 4499 C 2618 4494 2659 4481 2700 4470 C 2741 4458 2784 4445 2795 4440 C 2823 4427 3060 4350 3072 4350 C 3078 4350 3096 4344 3113 4336 C 3131 4329 3240 4292 3355 4255 C 3471 4218 3572 4185 3580 4181 C 3588 4177 3649 4156 3715 4135 C 3781 4114 3942 4062 4073 4019 C 4203 3975 4315 3940 4321 3940 C 4327 3940 4346 3934 4363 3926 C 4381 3918 4445 3895 4505 3876 C 4738 3801 5106 3680 5135 3669 C 5152 3664 5188 3652 5215 3644 C 5243 3636 5274 3625 5285 3620 C 5296 3616 5433 3570 5590 3520 C 5904 3419 6045 3372 6075 3360 C 6104 3348 6384 3260 6393 3260 C 6397 3260 6400 3539 6400 3879 L 6400 4499 L 6348 4509 C 6319 4515 6194 4529 6070 4540 C 5790 4565 5283 4614 5045 4639 C 4946 4650 4735 4670 4575 4684 C 4416 4698 4258 4714 4225 4720 C 4192 4725 4080 4737 3975 4745 C 3871 4753 3756 4765 3720 4770 C 3684 4776 3558 4790 3440 4800 C 3108 4830 2701 4868 2643 4874 C 2614 4878 2590 4879 2589 4878 Z"
        fill="#2bb673"
        stroke="#00000000"/>
    <path
        id="path_3"
        d="M 2305 4088 C 2275 4042 2238 3988 2223 3967 C 2197 3930 2197 3929 2216 3911 C 2226 3901 2451 3698 2715 3460 C 2979 3222 3218 3005 3245 2979 C 3304 2923 3300 2927 4160 2147 C 4531 1811 4869 1503 4910 1464 C 4989 1389 6054 423 6152 339 L 6208 290 L 6238 327 C 6282 384 6335 485 6367 575 L 6395 655 L 6398 1156 L 6401 1658 L 6293 1725 C 6234 1762 6163 1807 6135 1825 C 6108 1843 5892 1978 5655 2125 C 5419 2272 5196 2412 5160 2435 C 5124 2458 5061 2497 5020 2522 C 4979 2547 4898 2597 4840 2634 C 4782 2670 4700 2721 4657 2747 C 4614 2774 4547 2816 4507 2841 C 4432 2889 3992 3165 3917 3211 C 3787 3291 3305 3591 3140 3695 C 3121 3707 3065 3742 3015 3773 C 2966 3804 2894 3849 2855 3873 C 2531 4077 2380 4170 2371 4170 C 2365 4170 2336 4133 2305 4088 Z"
        fill="#2bb673"
        stroke="#00000000"/>
    <path
        id="path_4"
        d="M 1 3262 C 1 3027 4 2842 7 2850 C 10 2858 34 2910 60 2965 C 86 3020 137 3135 174 3220 C 211 3305 255 3404 271 3439 C 287 3474 300 3504 300 3505 C 300 3507 276 3520 248 3535 C 219 3550 151 3591 98 3626 L 0 3690 L 1 3262 Z"
        fill="#2bb673"
        stroke="#00000000"/>
    <path
        id="path_5"
        d="M 1788 3590 C 1745 3564 1667 3523 1613 3500 C 1559 3477 1511 3454 1506 3449 C 1499 3443 1572 3189 1600 3125 C 1605 3114 1632 3031 1660 2940 C 1688 2849 1715 2768 1719 2760 C 1724 2752 1739 2702 1754 2650 C 1769 2598 1785 2546 1789 2535 C 1794 2524 1842 2380 1895 2215 C 1949 2050 2007 1869 2026 1812 C 2045 1756 2060 1705 2060 1699 C 2060 1693 2066 1674 2074 1657 C 2082 1639 2098 1591 2110 1550 C 2121 1509 2135 1466 2140 1455 C 2153 1427 2230 1190 2230 1178 C 2230 1172 2236 1154 2244 1137 C 2252 1119 2268 1071 2280 1030 C 2291 989 2305 946 2310 935 C 2322 907 2410 627 2410 617 C 2410 612 2416 594 2424 577 C 2439 542 2576 121 2586 77 C 2589 62 2596 47 2601 44 C 2606 41 2610 30 2610 19 C 2610 0 2625 0 3405 0 C 3846 0 4200 4 4200 9 C 4200 13 4191 29 4180 43 C 4169 57 4160 71 4160 75 C 4160 78 4143 107 4121 138 C 4100 169 4067 220 4048 250 C 4028 280 3995 332 3974 366 C 3843 570 3671 840 3645 882 C 3640 891 3572 996 3495 1116 C 3418 1236 3351 1342 3345 1351 C 3334 1371 2973 1935 2895 2055 C 2839 2141 2692 2371 2675 2399 C 2670 2408 2650 2436 2633 2461 C 2615 2487 2600 2510 2600 2513 C 2600 2521 2423 2797 2394 2836 C 2381 2853 2370 2870 2370 2875 C 2370 2879 2354 2904 2335 2930 C 2316 2956 2300 2980 2300 2984 C 2300 2987 2287 3009 2271 3032 C 2255 3056 2221 3109 2195 3150 C 2169 3191 2131 3249 2111 3279 C 2091 3309 2073 3338 2070 3344 C 2067 3350 2035 3401 1997 3458 C 1960 3514 1930 3563 1930 3566 C 1930 3575 1878 3640 1871 3639 C 1868 3639 1830 3617 1788 3590 Z"
        fill="#2bb673"
        stroke="#00000000"/>
    <path
        id="path_6"
        d="M 594 3386 C 588 3370 574 3312 515 3055 C 496 2973 469 2857 455 2798 C 441 2738 418 2642 404 2583 C 391 2523 378 2468 375 2460 C 369 2439 325 2251 285 2075 C 247 1910 206 1734 165 1565 C 131 1423 85 1226 51 1075 C 36 1009 19 946 14 935 C 9 924 5 857 6 785 C 6 670 9 646 34 575 C 130 296 345 96 625 25 C 709 3 745 0 884 0 L 1046 0 L 1043 423 C 1041 655 1036 1036 1030 1270 C 1025 1504 1017 2069 1014 2526 L 1007 3357 L 878 3364 C 807 3367 741 3374 732 3379 C 723 3384 689 3391 658 3395 C 610 3401 599 3400 594 3386 Z"
        fill="#2bb673"
        stroke="#00000000"/>
</svg>
