<svg
    xmlns="http://www.w3.org/2000/svg"
    viewBox="0 0 569 569"
    id="vector">
    <path
        id="path"
        d="M 1.527 52.246 L 39.511 118.715 C 40.792 120.961 42.937 122.586 45.445 123.215 L 80.883 132.074 L 202.426 253.617 L 215.856 240.191 L 92.411 116.75 C 91.196 115.531 89.673 114.668 88.005 114.25 L 53.954 105.707 L 21.614 49.082 L 49.341 21.355 L 105.989 53.726 L 114.536 87.777 C 114.95 89.449 115.817 90.976 117.032 92.191 L 240.477 215.636 L 253.903 202.206 L 132.36 80.663 L 123.501 45.245 C 122.872 42.733 121.247 40.585 119.001 39.3 L 52.528 1.32 C 48.821 -0.789 44.157 -0.164 41.133 2.847 L 3.153 40.831 C 0.098 43.835 -0.566 48.507 1.528 52.245 Z M 1.527 52.246"
        fill="#000000"/>
    <path
        id="path_1"
        d="M 396.313 187.145 L 187.411 396.051 L 173.981 382.621 L 382.887 173.719 Z M 396.313 187.145"
        fill="#000000"/>
    <path
        id="path_2"
        d="M 150.848 403.441 C 149.129 400.582 146.043 398.836 142.707 398.836 L 85.734 398.836 C 82.402 398.836 79.312 400.582 77.597 403.441 L 49.109 450.918 C 47.3 453.926 47.3 457.688 49.109 460.699 L 77.597 508.176 C 79.312 511.031 82.402 512.781 85.734 512.781 L 142.707 512.781 C 146.043 512.781 149.129 511.031 150.848 508.176 L 179.332 460.699 C 181.141 457.687 181.141 453.926 179.332 450.918 Z M 137.336 493.789 L 91.109 493.789 L 68.32 455.809 L 91.109 417.825 L 137.336 417.825 L 160.125 455.809 Z M 137.336 493.789"
        fill="#000000"/>
    <path
        id="path_3"
        d="M 456.063 227.914 C 518.778 228.125 569.793 177.453 570.004 114.738 C 570.035 105.191 568.863 95.683 566.516 86.429 C 565.25 81.339 560.098 78.241 555.008 79.507 C 553.336 79.925 551.813 80.788 550.594 82.003 L 491.485 141.073 L 444.587 125.444 L 428.946 78.557 L 488.055 19.436 C 491.762 15.725 491.758 9.713 488.047 6.006 C 486.824 4.783 485.285 3.916 483.602 3.502 C 422.782 -11.9 360.997 24.916 345.594 85.732 C 343.254 94.959 342.086 104.443 342.117 113.962 C 342.14 121.439 342.91 128.892 344.426 136.212 L 136.469 344.165 C 129.149 342.653 121.696 341.884 114.223 341.856 C 51.289 341.856 0.274 392.872 0.274 455.805 C 0.274 518.735 51.29 569.75 114.223 569.75 C 177.153 569.75 228.168 518.734 228.168 455.805 C 228.145 448.328 227.371 440.875 225.859 433.555 L 275.644 383.77 L 297.417 405.543 C 301.128 409.25 307.136 409.25 310.847 405.543 L 315.593 400.793 C 319.757 396.656 326.488 396.656 330.652 400.793 C 334.812 404.941 334.82 411.676 330.672 415.836 C 330.668 415.84 330.66 415.848 330.652 415.856 L 325.906 420.602 C 322.199 424.309 322.199 430.321 325.906 434.028 L 439.179 547.301 C 468.972 577.367 517.495 577.586 547.562 547.793 C 577.625 518 577.843 469.473 548.05 439.41 C 547.89 439.246 547.726 439.082 547.562 438.918 L 434.289 325.648 C 430.582 321.941 424.57 321.941 420.863 325.648 L 416.117 330.394 C 411.949 334.535 405.222 334.535 401.054 330.394 C 396.898 326.246 396.886 319.511 401.034 315.355 C 401.042 315.347 401.05 315.343 401.054 315.335 L 405.804 310.585 C 409.511 306.878 409.511 300.866 405.804 297.159 L 384.031 275.386 L 433.816 225.601 C 441.136 227.113 448.589 227.886 456.062 227.91 Z M 493.371 550.766 C 486.473 550.754 479.633 549.508 473.176 547.082 L 547.336 472.918 C 558.527 502.688 543.469 535.891 513.699 547.082 C 507.203 549.523 500.316 550.773 493.371 550.766 Z M 385.797 303.973 C 375.281 316.516 376.93 335.211 389.473 345.723 C 400.496 354.961 416.563 354.953 427.575 345.696 L 534.138 452.352 C 535.294 453.512 536.376 454.735 537.423 455.977 L 456.235 537.165 C 454.989 536.122 453.766 535.04 452.606 533.88 L 345.961 427.228 C 356.477 414.685 354.828 395.99 342.285 385.478 C 331.262 376.236 315.191 376.248 304.18 385.501 L 288.989 370.31 L 370.602 288.818 Z M 424.141 208.469 L 208.73 423.836 C 206.367 426.195 205.417 429.621 206.222 432.859 C 219.249 484.019 188.335 536.054 137.171 549.078 C 86.011 562.105 33.976 531.191 20.948 480.027 C 7.925 428.867 38.839 376.832 90.003 363.804 C 105.48 359.866 121.694 359.866 137.171 363.804 C 140.409 364.597 143.827 363.648 146.194 361.3 L 361.553 145.929 C 363.912 143.57 364.862 140.144 364.049 136.909 C 351.111 86.346 381.612 34.87 432.174 21.929 C 441.729 19.488 451.612 18.55 461.455 19.163 L 411.365 69.272 C 408.822 71.811 407.931 75.573 409.068 78.983 L 428.056 135.96 C 429.005 138.792 431.232 141.019 434.068 141.96 L 491.045 160.952 C 494.451 162.089 498.213 161.202 500.756 158.663 L 550.846 108.573 C 550.959 110.386 551.018 112.178 551.018 113.964 C 551.284 166.14 509.205 208.652 457.03 208.921 C 448.964 208.96 440.925 207.968 433.112 205.968 C 429.874 205.159 426.448 206.105 424.089 208.464 L 424.14 208.464 Z M 424.141 208.469"
        fill="#000000"/>
    <path
        id="path_4"
        d="M 491.273 477.578 L 477.843 491.008 L 382.89 396.055 L 396.316 382.625 Z M 491.273 477.578"
        fill="#000000"/>
</svg>
