<svg
    xmlns="http://www.w3.org/2000/svg"
    viewBox="0 0 512 512"
    id="vector">
    <path
        id="path"
        d="M 400 128 C 426.468 128 448 106.467 448 80 C 448 53.533 426.468 32 400 32 C 373.532 32 352 53.533 352 80 C 352 106.467 373.532 128 400 128 Z M 400 48 C 417.645 48 432 62.355 432 80 C 432 97.645 417.645 112 400 112 C 382.355 112 368 97.645 368 80 C 368 62.355 382.355 48 400 48 Z"
        fill="#000000"/>
    <path
        id="path_1"
        d="M 392 0 L 408 0 L 408 16 L 392 16 Z"
        fill="#000000"/>
    <path
        id="path_2"
        d="M 392 144 L 408 144 L 408 160 L 392 160 Z"
        fill="#000000"/>
    <path
        id="path_3"
        d="M 337.416 29.123 L 348.728 17.811 L 360.04 29.123 L 348.728 40.435 Z"
        fill="#000000"/>
    <path
        id="path_4"
        d="M 439.228 130.963 L 450.54 119.651 L 461.852 130.963 L 450.54 142.275 Z"
        fill="#000000"/>
    <path
        id="path_5"
        d="M 439.203 29.104 L 450.515 17.792 L 461.827 29.104 L 450.515 40.416 Z"
        fill="#000000"/>
    <path
        id="path_6"
        d="M 337.411 130.949 L 348.723 119.637 L 360.035 130.949 L 348.723 142.261 Z"
        fill="#000000"/>
    <path
        id="path_7"
        d="M 320 72 L 336 72 L 336 88 L 320 88 Z"
        fill="#000000"/>
    <path
        id="path_8"
        d="M 464 72 L 480 72 L 480 88 L 464 88 Z"
        fill="#000000"/>
    <path
        id="path_9"
        d="M 504 464 L 424 464 L 424 456 C 424 447.178 416.822 440 408 440 L 400 440 L 400 384 L 504 384 C 506.503 384 508.861 382.829 510.374 380.834 C 511.887 378.839 512.379 376.253 511.704 373.843 L 498.264 325.843 C 498.263 325.839 498.262 325.835 498.261 325.831 L 484.827 277.852 C 484.826 277.849 484.826 277.846 484.825 277.843 L 471.385 229.843 C 470.417 226.388 467.269 224 463.681 224 L 280 224 C 276.412 224 273.264 226.388 272.296 229.843 L 258.856 277.843 C 258.855 277.846 258.855 277.849 258.854 277.852 L 245.42 325.831 C 245.419 325.835 245.418 325.839 245.417 325.843 L 231.977 373.843 C 231.302 376.253 231.794 378.841 233.307 380.835 C 234.82 382.829 237.177 384 239.68 384 L 352 384 L 352 440 L 344 440 C 335.178 440 328 447.178 328 456 L 328 464 L 296 464 L 296 400 L 280 400 L 280 464 L 224 464 L 224 320 C 224 284.71 195.29 256 160 256 C 124.71 256 96 284.71 96 320 L 96 464 L 40 464 L 40 172.188 L 160 66.654 L 245.08 141.478 L 279.41 171.67 L 280.001 208.13 L 295.999 207.87 L 295.482 176 L 312 176 C 316.418 176 320 172.418 320 168 L 320 144 C 320 141.724 319.03 139.556 317.334 138.038 L 165.334 2.038 C 162.297 -0.68 157.703 -0.68 154.666 2.038 L 2.666 138.038 C 0.97 139.556 0 141.724 0 144 L 0 168 C 0 172.418 3.582 176 8 176 L 24 176 L 24 464 L 8 464 C 3.582 464 0 467.582 0 472 L 0 504 C 0 508.418 3.582 512 8 512 L 504 512 C 508.418 512 512 508.418 512 504 L 512 472 C 512 467.582 508.418 464 504 464 Z M 16 147.577 L 160 18.735 L 304 147.577 L 304 160 L 290.369 160 L 165.283 49.993 C 162.645 47.673 158.862 47.379 155.933 49.11 C 155.932 49.111 155.93 49.112 155.929 49.113 C 155.877 49.144 155.826 49.175 155.775 49.207 C 155.775 49.207 155.774 49.208 155.774 49.208 C 155.73 49.236 155.685 49.264 155.641 49.293 C 155.633 49.298 155.625 49.303 155.617 49.308 C 155.582 49.331 155.546 49.355 155.511 49.379 C 155.494 49.39 155.478 49.401 155.461 49.413 C 155.433 49.432 155.406 49.452 155.379 49.471 C 155.356 49.488 155.332 49.504 155.309 49.521 C 155.289 49.536 155.269 49.551 155.249 49.565 C 155.218 49.588 155.187 49.611 155.156 49.634 C 155.145 49.642 155.134 49.651 155.124 49.659 C 155.085 49.689 155.046 49.719 155.008 49.75 C 155.001 49.755 154.995 49.761 154.988 49.767 C 154.946 49.801 154.904 49.835 154.863 49.87 C 154.86 49.873 154.856 49.876 154.853 49.879 C 154.813 49.913 154.773 49.946 154.734 49.981 L 28.994 160 L 16 160 Z M 272.627 288 L 325.4 288 L 322.2 320 L 263.668 320 Z M 480.012 320 L 421.48 320 L 418.28 288 L 471.052 288 Z M 397.399 240 L 400.6 272 L 343.08 272 L 346.28 240 Z M 341.48 288 L 402.2 288 L 405.4 320 L 338.28 320 Z M 426.28 368 L 423.08 336 L 484.492 336 L 493.452 368 Z M 457.612 240 L 466.572 272 L 416.68 272 L 413.479 240 Z M 286.067 240 L 330.2 240 L 327 272 L 277.107 272 Z M 259.188 336 L 320.601 336 L 317.4 368 L 250.228 368 Z M 336.681 336 L 407 336 L 410.2 368 L 333.479 368 Z M 368 384 L 384 384 L 384 440 L 368 440 Z M 344 456 L 408 456 L 408 464 L 344 464 Z M 112 320 C 112 293.533 133.533 272 160 272 C 186.467 272 208 293.533 208 320 L 208 464 L 112 464 Z M 496 496 L 16 496 L 16 480 L 496 480 Z"
        fill="#000000"/>
    <path
        id="path_10"
        d="M 176 368 L 192 368 L 192 400 L 176 400 Z"
        fill="#000000"/>
    <path
        id="path_11"
        d="M 208 160 C 208 133.533 186.468 112 160 112 C 133.532 112 112 133.533 112 160 L 112 224 L 96 224 L 96 240 L 224 240 L 224 224 L 208 224 Z M 160 128 C 177.645 128 192 142.355 192 160 L 192 192 L 128 192 L 128 160 C 128 142.355 142.355 128 160 128 Z M 128 224 L 128 208 L 192 208 L 192 224 Z"
        fill="#000000"/>
</svg>
