<svg
    xmlns="http://www.w3.org/2000/svg"
    viewBox="0 0 512 512"
    id="vector">
    <path
        id="path"
        d="M 396.656 167.09 C 383.718 160.031 368.66 157.863 354.258 160.988 L 323.274 167.711 L 328.422 115.691 C 330.496 94.746 318.035 75.367 298.113 68.57 C 286.488 64.601 274.054 65.484 263.105 71.05 C 252.156 76.616 244.121 86.144 240.48 97.874 L 223.238 153.401 C 219 167.057 208.461 178.155 195.039 183.089 L 184.363 187.015 L 113.629 187.015 C 105.348 187.015 98.629 193.73 98.629 202.015 L 98.629 362.386 C 98.629 366.363 100.211 370.179 103.024 372.991 C 105.837 375.803 109.653 377.386 113.633 377.386 L 173.918 377.378 L 323.445 396.288 C 327.976 396.862 332.5 397.143 337.004 397.143 C 359.867 397.143 382.074 389.83 400.676 375.979 L 403.918 373.561 C 419.395 362.038 428.633 343.639 428.633 324.346 L 428.633 220.959 C 428.629 198.49 416.379 177.85 396.656 167.088 Z M 128.629 217.016 L 170.856 217.016 L 160.961 347.383 L 128.633 347.387 L 128.633 217.016 Z M 398.629 324.352 C 398.629 334.211 393.906 343.618 385.996 349.508 L 382.754 351.922 C 366.742 363.848 347.024 369.031 327.207 366.527 L 190.902 349.289 L 197.422 263.379 L 201.262 212.766 L 205.391 211.246 C 227.52 203.113 244.903 184.812 251.891 162.301 L 269.133 106.77 C 270.352 102.844 273.039 99.657 276.703 97.793 C 280.371 95.93 284.531 95.633 288.426 96.961 C 295.094 99.238 299.266 105.723 298.571 112.734 L 291.391 185.257 C 290.914 190.027 292.754 194.741 296.336 197.933 C 299.914 201.121 304.805 202.406 309.496 201.394 L 360.617 190.304 C 367.98 188.71 375.676 189.816 382.289 193.425 C 392.367 198.925 398.629 209.476 398.629 220.956 Z M 398.629 324.352"
        fill="#000000"/>
    <path
        id="path_1"
        d="M 437.02 74.98 C 388.668 26.628 324.379 0 256 0 C 187.621 0 123.332 26.629 74.98 74.98 C 26.628 123.332 0 187.621 0 256 C 0 324.379 26.629 388.668 74.98 437.02 C 123.332 485.372 187.621 512 256 512 C 324.379 512 388.668 485.371 437.02 437.02 C 485.372 388.668 512 324.379 512 256 C 512 187.621 485.371 123.332 437.02 74.98 Z M 415.805 415.805 C 373.121 458.493 316.367 482 256 482 C 195.633 482 138.879 458.492 96.195 415.805 C 53.507 373.121 30 316.367 30 256 C 30 195.633 53.508 138.879 96.195 96.195 C 138.879 53.507 195.633 30 256 30 C 316.367 30 373.121 53.508 415.805 96.195 C 458.493 138.879 482 195.633 482 256 C 482 316.367 458.492 373.121 415.805 415.805 Z M 415.805 415.805"
        fill="#000000"/>
</svg>
