<svg
    xmlns="http://www.w3.org/2000/svg"
    viewBox="0 0 511 511"
    id="vector">
    <path
        id="path"
        d="M 465.135 165.947 L 325.631 126.09 L 325.631 56.438 L 414.143 56.438 L 414.143 72.474 L 400.949 72.474 C 396.8 72.474 393.437 75.836 393.437 79.986 L 393.437 111.048 C 393.437 115.198 396.8 118.56 400.949 118.56 L 442.364 118.56 C 446.513 118.56 449.876 115.198 449.876 111.048 L 449.876 79.987 C 449.876 75.837 446.513 72.475 442.364 72.475 L 429.167 72.475 L 429.167 56.438 L 463.072 56.438 C 466.818 56.438 469.992 53.678 470.512 49.968 C 471.032 46.258 468.738 42.733 465.136 41.703 L 320.359 0.341 C 320.351 0.338 320.342 0.336 320.334 0.334 L 320.182 0.291 C 320.123 0.274 320.065 0.265 320.006 0.25 C 319.845 0.208 319.683 0.168 319.518 0.137 C 319.398 0.114 319.279 0.099 319.159 0.082 C 319.04 0.065 318.922 0.047 318.801 0.036 C 318.635 0.021 318.469 0.015 318.303 0.011 C 318.241 0.008 318.181 0 318.119 0 L 317.958 0 C 317.951 0 317.943 0 317.936 0 L 194.064 0 C 194.051 0 194.037 0 194.024 0 L 193.877 0 C 193.82 0 193.764 0.007 193.707 0.009 C 193.535 0.013 193.363 0.019 193.191 0.035 C 193.076 0.045 192.963 0.063 192.848 0.079 C 192.724 0.097 192.6 0.112 192.474 0.136 C 192.312 0.167 192.153 0.206 191.996 0.247 C 191.935 0.263 191.874 0.272 191.813 0.289 L 191.657 0.334 C 191.651 0.336 191.645 0.337 191.639 0.339 L 46.861 41.703 C 43.259 42.733 40.966 46.258 41.486 49.968 C 42.006 53.678 45.18 56.438 48.926 56.438 L 82.829 56.438 L 82.829 72.474 L 69.632 72.474 C 65.483 72.474 62.12 75.836 62.12 79.986 L 62.12 111.048 C 62.12 115.198 65.483 118.56 69.632 118.56 L 111.047 118.56 C 115.196 118.56 118.559 115.198 118.559 111.048 L 118.559 79.987 C 118.559 75.837 115.196 72.475 111.047 72.475 L 97.851 72.475 L 97.851 56.438 L 186.365 56.438 L 186.365 126.089 L 46.861 165.947 C 43.259 166.977 40.966 170.502 41.486 174.212 C 42.006 177.922 45.18 180.682 48.926 180.682 L 82.829 180.682 L 82.829 196.718 L 69.632 196.718 C 65.483 196.718 62.12 200.08 62.12 204.23 L 62.12 235.292 C 62.12 239.442 65.483 242.804 69.632 242.804 L 111.047 242.804 C 115.196 242.804 118.559 239.442 118.559 235.292 L 118.559 204.23 C 118.559 200.08 115.196 196.718 111.047 196.718 L 97.851 196.718 L 97.851 180.682 L 186.365 180.682 L 186.365 254.947 L 155.642 362.473 C 155.641 362.477 155.64 362.482 155.638 362.486 L 155.578 362.695 C 155.577 362.698 155.576 362.702 155.575 362.705 L 155.561 362.754 C 155.559 362.763 155.556 362.772 155.553 362.78 L 126.086 465.91 L 111.045 465.91 C 106.896 465.91 103.533 469.272 103.533 473.422 L 103.533 496.973 L 88.183 496.973 C 84.034 496.973 80.671 500.335 80.671 504.485 C 80.671 508.635 84.034 511.997 88.183 511.997 L 111.047 511.997 L 400.951 511.997 L 423.813 511.997 C 427.962 511.997 431.325 508.635 431.325 504.485 C 431.325 500.335 427.962 496.973 423.813 496.973 L 408.463 496.973 L 408.463 473.422 C 408.463 469.272 405.1 465.91 400.951 465.91 L 385.909 465.91 L 356.444 362.787 C 356.44 362.772 356.435 362.756 356.431 362.741 L 356.363 362.502 C 356.359 362.49 356.356 362.478 356.353 362.466 L 325.632 254.946 L 325.632 180.681 L 414.144 180.681 L 414.144 196.717 L 400.95 196.717 C 396.801 196.717 393.438 200.079 393.438 204.229 L 393.438 235.291 C 393.438 239.441 396.801 242.803 400.95 242.803 L 442.365 242.803 C 446.514 242.803 449.877 239.441 449.877 235.291 L 449.877 204.23 C 449.877 200.08 446.514 196.718 442.365 196.718 L 429.168 196.718 L 429.168 180.682 L 463.073 180.682 C 466.819 180.682 469.993 177.922 470.513 174.212 C 471.03 170.502 468.736 166.977 465.135 165.947 Z M 434.852 87.499 L 434.852 103.537 L 408.461 103.537 L 408.461 87.499 L 434.852 87.499 Z M 325.631 17.472 L 409.435 41.415 L 325.631 41.415 L 325.631 17.472 Z M 103.535 87.499 L 103.535 103.537 L 77.144 103.537 L 77.144 87.499 L 103.535 87.499 Z M 103.535 211.741 L 103.535 227.779 L 77.144 227.779 L 77.144 211.741 L 103.535 211.741 Z M 201.389 15.024 L 310.607 15.024 L 310.607 41.415 L 201.389 41.415 L 201.389 15.024 Z M 310.607 56.438 L 310.607 117.719 L 218.685 56.438 L 310.607 56.438 Z M 201.389 62.963 L 293.309 124.243 L 201.389 124.243 L 201.389 62.963 Z M 201.389 139.267 L 310.607 139.267 L 310.607 165.659 L 201.389 165.659 L 201.389 139.267 Z M 186.647 357.199 L 255.999 308.653 L 325.351 357.199 L 186.647 357.199 Z M 317.361 372.223 L 255.998 402.905 L 194.636 372.223 L 317.361 372.223 Z M 217.708 263.511 L 294.288 263.511 L 255.998 290.313 L 217.708 263.511 Z M 310.607 180.682 L 310.607 241.962 L 218.686 180.682 L 310.607 180.682 Z M 201.389 187.206 L 293.312 248.488 L 201.389 248.488 L 201.389 187.206 Z M 102.56 41.414 L 186.365 17.471 L 186.365 41.414 L 102.56 41.414 Z M 102.56 165.658 L 186.365 141.713 L 186.365 165.658 L 102.56 165.658 Z M 198.204 268.198 L 242.899 299.484 L 175.857 346.412 L 198.204 268.198 Z M 167.552 375.477 L 239.201 411.302 L 143.668 459.069 L 167.552 375.477 Z M 380.237 480.939 L 380.237 480.939 L 380.239 480.939 C 380.248 480.939 380.258 480.937 380.267 480.937 L 393.44 480.937 L 393.44 496.976 L 393.439 496.976 L 118.56 496.976 L 118.56 480.937 L 131.732 480.937 C 131.742 480.937 131.751 480.939 131.76 480.939 C 131.771 480.939 131.783 480.937 131.794 480.937 L 131.902 480.937 C 131.915 480.937 131.929 480.937 131.942 480.937 L 202.693 480.937 C 206.842 480.937 210.205 477.575 210.205 473.425 C 210.205 469.275 206.842 465.913 202.693 465.913 L 163.574 465.913 L 255.998 419.701 L 348.422 465.913 L 236.184 465.913 C 232.035 465.913 228.672 469.275 228.672 473.425 C 228.672 477.575 232.035 480.937 236.184 480.937 L 380.203 480.937 C 380.214 480.937 380.226 480.939 380.237 480.939 Z M 368.328 459.069 L 272.795 411.302 L 344.444 375.477 L 368.328 459.069 Z M 336.14 346.413 L 269.097 299.484 L 313.792 268.198 L 336.14 346.413 Z M 325.631 165.658 L 325.631 141.714 L 409.436 165.658 L 325.631 165.658 Z M 434.852 211.741 L 434.852 227.779 L 408.461 227.779 L 408.461 211.741 L 434.852 211.741 Z"
        fill="#000000"/>
</svg>
