<svg
    xmlns="http://www.w3.org/2000/svg"
    viewBox="0 0 30 242"
    id="vector">
    <path
        id="path"
        d="M 14.309 0.424 L 0.315 16.663 C -0.031 17.114 -0.098 17.607 0.116 18.143 C 0.33 18.678 0.716 18.946 1.277 18.946 L 10.236 18.943 L 10.254 71.707 C 10.254 72.102 10.374 72.426 10.614 72.679 C 10.854 72.932 11.161 73.059 11.534 73.059 L 19.213 73.056 C 19.586 73.056 19.893 72.929 20.132 72.675 C 20.372 72.421 20.491 72.097 20.491 71.702 L 20.474 18.939 L 29.433 18.936 C 29.967 18.936 30.353 18.667 30.592 18.132 C 30.806 17.596 30.725 17.103 30.352 16.652 L 16.187 0.422 C 15.92 0.14 15.601 0 15.227 0 C 14.881 0 14.575 0.142 14.309 0.424 Z"
        fill="#007bff"
        fill-opacity="0.4"
        stroke-opacity="0.4"/>
    <path
        id="path_1"
        d="M 14.309 83.852 L 0.315 100.37 C -0.031 100.829 -0.098 101.331 0.116 101.875 C 0.33 102.419 0.716 102.692 1.277 102.692 L 10.237 102.689 L 10.255 156.357 C 10.255 156.759 10.375 157.088 10.615 157.346 C 10.855 157.603 11.162 157.733 11.535 157.733 L 19.214 157.73 C 19.587 157.73 19.894 157.601 20.133 157.343 C 20.373 157.085 20.492 156.755 20.492 156.354 L 20.474 102.686 L 29.433 102.683 C 29.967 102.683 30.353 102.409 30.592 101.865 C 30.806 101.32 30.725 100.818 30.352 100.359 L 16.187 83.851 C 15.92 83.564 15.601 83.422 15.227 83.422 C 14.881 83.422 14.575 83.566 14.309 83.853 Z"
        fill="#007bff"
        fill-opacity="0.4"
        stroke-opacity="0.4"
        stroke-width="0.145263"/>
    <path
        id="path_2"
        d="M 14.309 168.519 L 0.315 185.037 C -0.031 185.496 -0.098 185.998 0.116 186.542 C 0.33 187.086 0.716 187.359 1.277 187.359 L 10.237 187.356 L 10.255 241.024 C 10.255 241.426 10.375 241.755 10.615 242.013 C 10.855 242.27 11.162 242.4 11.535 242.4 L 19.214 242.397 C 19.587 242.397 19.894 242.268 20.133 242.01 C 20.373 241.752 20.492 241.422 20.492 241.021 L 20.474 187.353 L 29.433 187.35 C 29.967 187.35 30.353 187.076 30.592 186.532 C 30.806 185.987 30.725 185.485 30.352 185.026 L 16.187 168.517 C 15.92 168.23 15.601 168.088 15.227 168.088 C 14.881 168.088 14.575 168.232 14.309 168.519 Z"
        fill="#007bff"
        stroke-width="0.145263"/>
</svg>
